<?xml version="1.0" encoding="utf-8"?>
<!-- Generator: Adobe Illustrator 23.0.6, SVG Export Plug-In . SVG Version: 6.00 Build 0)  -->
<svg version="1.1"
	 id="svg8" xmlns:cc="http://creativecommons.org/ns#" xmlns:dc="http://purl.org/dc/elements/1.1/" xmlns:inkscape="http://www.inkscape.org/namespaces/inkscape" xmlns:rdf="http://www.w3.org/1999/02/22-rdf-syntax-ns#" xmlns:sodipodi="http://sodipodi.sourceforge.net/DTD/sodipodi-0.dtd" xmlns:svg="http://www.w3.org/2000/svg"
	 xmlns="http://www.w3.org/2000/svg" xmlns:xlink="http://www.w3.org/1999/xlink" x="0px" y="0px" viewBox="0 0 1280 720"
	 style="enable-background:new 0 0 1280 720;" xml:space="preserve">
<style type="text/css">
	.st0{opacity:0.25;}
	.st1{fill:url(#rect4488_1_);}
	.st2{fill:#7496C8;}
	.st3{fill:#AABEDE;}
	.st4{fill:#5D83C1;}
	.st5{fill:#E5F4F8;}
	.st6{fill:#FFFFFF;}
	.st7{fill:#CEEAF2;}
	.st8{fill:#E6E6E6;}
	.st9{fill:#E6E6E6;fill-opacity:0.1961;}
</style>
<sodipodi:namedview  bordercolor="#666666" borderopacity="1.0" id="base" inkscape:current-layer="layer2" inkscape:cx="-670.67272" inkscape:cy="150.62542" inkscape:document-units="px" inkscape:pageopacity="0.0" inkscape:pageshadow="2" inkscape:snap-global="false" inkscape:window-height="1017" inkscape:window-maximized="1" inkscape:window-width="1920" inkscape:window-x="1912" inkscape:window-y="-8" inkscape:zoom="0.7" pagecolor="#ffffff" showborder="false" showgrid="false">
	</sodipodi:namedview>
<g id="layer2" inkscape:groupmode="layer" inkscape:label="Layer 2" class="st0">
	<g id="g4788" inkscape:export-xdpi="95.999939" inkscape:export-ydpi="95.999939">
		
			<linearGradient id="rect4488_1_" gradientUnits="userSpaceOnUse" x1="552.2361" y1="318.8151" x2="552.8702" y2="1.1279" gradientTransform="matrix(2.8346 0 0 2.8346 -924.6712 2.5895)">
			<stop  offset="0" style="stop-color:#FFFFFF"/>
			<stop  offset="1" style="stop-color:#3B9BDB"/>
		</linearGradient>
		<rect id="rect4488" x="1.9" y="0" class="st1" width="1279.5" height="906.6"/>
		<g id="g4542" transform="translate(-5.6696429,2.078869)">
			
				<path id="path4514" inkscape:flatsided="true" inkscape:randomized="0" inkscape:rounded="0" inkscape:transform-center-x="-7.7843451e-006" inkscape:transform-center-y="-14.288459" sodipodi:arg1="0.52359878" sodipodi:arg2="1.5707963" sodipodi:cx="-271.54584" sodipodi:cy="255.57323" sodipodi:r1="57.153828" sodipodi:r2="28.576914" sodipodi:sides="3" sodipodi:type="star" class="st2" d="
				M301.5,714.2H78.7l111.4-348.3L301.5,714.2z"/>
			
				<path id="path4516" inkscape:connector-curvature="0" inkscape:transform-center-x="-7.7843451e-006" inkscape:transform-center-y="-14.288459" sodipodi:nodetypes="cccc" class="st3" d="
				M145.5,714.2H78.7l111.4-348.3L145.5,714.2z"/>
			
				<path id="path4519" inkscape:connector-curvature="0" inkscape:transform-center-x="5.5943528e-006" inkscape:transform-center-y="-14.288464" sodipodi:nodetypes="cccc" class="st4" d="
				M234.6,714.2h66.8L190,365.9L234.6,714.2z"/>
			<path id="path4521" inkscape:connector-curvature="0" class="st5" d="M190.1,365.9l-56.4,176.2l36.1-18.6l21.1,36.8l19.3-39.1
				l37.1,23.2L190.1,365.9z"/>
			<path id="path4526" inkscape:connector-curvature="0" class="st6" d="M190.1,365.9l-56.4,176.2l36.1-18.6v0.1L190.1,365.9z"/>
			<path id="path4531" inkscape:connector-curvature="0" class="st7" d="M190.1,365.9l20,155.7l0.1-0.3l37.1,23.2L190.1,365.9z"/>
		</g>
		<g id="g4556" transform="matrix(0.42023383,0,0,0.42023383,-204.01909,176.85426)">
			
				<path id="path4544" inkscape:flatsided="true" inkscape:randomized="0" inkscape:rounded="0" inkscape:transform-center-x="-7.7843451e-006" inkscape:transform-center-y="-14.288459" sodipodi:arg1="0.52359878" sodipodi:arg2="1.5707963" sodipodi:cx="-271.54584" sodipodi:cy="255.57323" sodipodi:r1="57.153828" sodipodi:r2="28.576914" sodipodi:sides="3" sodipodi:type="star" class="st2" d="
				M743,1282H520.3l111.4-348.3L743,1282z"/>
			
				<path id="path4546" inkscape:connector-curvature="0" inkscape:transform-center-x="-7.7843451e-006" inkscape:transform-center-y="-14.288459" sodipodi:nodetypes="cccc" class="st3" d="
				M587.1,1282h-66.8l111.4-348.3L587.1,1282z"/>
			
				<path id="path4548" inkscape:connector-curvature="0" inkscape:transform-center-x="5.5943528e-006" inkscape:transform-center-y="-14.288464" sodipodi:nodetypes="cccc" class="st4" d="
				M676.2,1282H743L631.6,933.6L676.2,1282z"/>
			<path id="path4550" inkscape:connector-curvature="0" class="st5" d="M631.6,933.6l-56.4,176.2l36.1-18.6l21.1,36.8l19.3-39.1
				l37.1,23.2L631.6,933.6z"/>
			<path id="path4552" inkscape:connector-curvature="0" class="st6" d="M631.6,933.6l-56.4,176.2l36.1-18.6v0.1L631.6,933.6z"/>
			<path id="path4554" inkscape:connector-curvature="0" class="st7" d="M631.6,933.6l20,155.7l0.1-0.3l37.1,23.2L631.6,933.6z"/>
		</g>
		<g id="g4570" transform="matrix(0.51943336,0,0,0.51943336,-109.4157,149.75221)">
			
				<path id="path4558" inkscape:flatsided="true" inkscape:randomized="0" inkscape:rounded="0" inkscape:transform-center-x="-7.7843451e-006" inkscape:transform-center-y="-14.288459" sodipodi:arg1="0.52359878" sodipodi:arg2="1.5707963" sodipodi:cx="-271.54584" sodipodi:cy="255.57323" sodipodi:r1="57.153828" sodipodi:r2="28.576914" sodipodi:sides="3" sodipodi:type="star" class="st2" d="
				M922,1111.6H699.2l111.4-348.3L922,1111.6z"/>
			
				<path id="path4560" inkscape:connector-curvature="0" inkscape:transform-center-x="-7.7843451e-006" inkscape:transform-center-y="-14.288459" sodipodi:nodetypes="cccc" class="st3" d="
				M766,1111.6h-66.8l111.4-348.3L766,1111.6z"/>
			
				<path id="path4562" inkscape:connector-curvature="0" inkscape:transform-center-x="5.5943528e-006" inkscape:transform-center-y="-14.288464" sodipodi:nodetypes="cccc" class="st4" d="
				M855.3,1111.6H922L810.6,763.2L855.3,1111.6z"/>
			<path id="path4564" inkscape:connector-curvature="0" class="st5" d="M810.6,763.2l-56.4,176.2l36.1-18.6l21.1,36.8l19.3-39.1
				l37.1,23.2L810.6,763.2z"/>
			<path id="path4566" inkscape:connector-curvature="0" class="st6" d="M810.6,763.2l-56.4,176.2l36.1-18.6v0.1L810.6,763.2z"/>
			<path id="path4568" inkscape:connector-curvature="0" class="st7" d="M810.6,763.2l20,155.7l0.1-0.3l37.1,23.2L810.6,763.2z"/>
		</g>
		<g id="g4598" transform="matrix(0.8805059,0,-0.0149472,0.88347425,118.73092,64.064139)">
			
				<path id="path4586" inkscape:flatsided="true" inkscape:randomized="0" inkscape:rounded="0" inkscape:transform-center-x="-7.7843451e-006" inkscape:transform-center-y="-14.288459" sodipodi:arg1="0.52359878" sodipodi:arg2="1.5707963" sodipodi:cx="-271.54584" sodipodi:cy="255.57323" sodipodi:r1="57.153828" sodipodi:r2="28.576914" sodipodi:sides="3" sodipodi:type="star" class="st2" d="
				M861.6,861.7H638.9l111-348.3L861.6,861.7z"/>
			
				<path id="path4588" inkscape:connector-curvature="0" inkscape:transform-center-x="-7.7843451e-006" inkscape:transform-center-y="-14.288459" sodipodi:nodetypes="cccc" class="st3" d="
				M705.7,861.7h-66.8l111-348.3L705.7,861.7z"/>
			
				<path id="path4590" inkscape:connector-curvature="0" inkscape:transform-center-x="5.5943528e-006" inkscape:transform-center-y="-14.288464" sodipodi:nodetypes="cccc" class="st4" d="
				M794.8,861.7h66.8L749.8,513.4L794.8,861.7z"/>
			<path id="path4592" inkscape:connector-curvature="0" class="st5" d="M749.8,513.4l-56.2,176.2l36.1-18.6l21.1,36.8l19.3-39.1
				l37.1,23.2L749.8,513.4z"/>
			<path id="path4594" inkscape:connector-curvature="0" class="st6" d="M749.8,513.4l-56.2,176.2l36.1-18.6l0,0.1L749.8,513.4z"/>
			<path id="path4596" inkscape:connector-curvature="0" class="st7" d="M749.8,513.4L770,669.1l0.1-0.3l37.1,23.2L749.8,513.4z"/>
		</g>
		<g id="g4584" transform="matrix(0.51943336,0,0.0969951,0.51943336,-41.786877,161.28605)">
			
				<path id="path4572" inkscape:flatsided="true" inkscape:randomized="0" inkscape:rounded="0" inkscape:transform-center-x="-7.7843451e-006" inkscape:transform-center-y="-14.288459" sodipodi:arg1="0.52359878" sodipodi:arg2="1.5707963" sodipodi:cx="-271.54584" sodipodi:cy="255.57323" sodipodi:r1="57.153828" sodipodi:r2="28.576914" sodipodi:sides="3" sodipodi:type="star" class="st2" d="
				M1276.3,1179.5h-222.8l116-348.3L1276.3,1179.5z"/>
			
				<path id="path4574" inkscape:connector-curvature="0" inkscape:transform-center-x="-7.7843451e-006" inkscape:transform-center-y="-14.288459" sodipodi:nodetypes="cccc" class="st3" d="
				M1120.4,1179.5h-66.8l116-348.3L1120.4,1179.5z"/>
			
				<path id="path4576" inkscape:connector-curvature="0" inkscape:transform-center-x="5.5943528e-006" inkscape:transform-center-y="-14.288464" sodipodi:nodetypes="cccc" class="st4" d="
				M1209.6,1179.5h66.8l-106.8-348.3L1209.6,1179.5z"/>
			<path id="path4578" inkscape:connector-curvature="0" class="st5" d="M1169.5,831.2l-58.7,176.3l36.4-18.6l20.6,36.8l19.8-39.1
				l36.7,23.2L1169.5,831.2z"/>
			<path id="path4580" inkscape:connector-curvature="0" class="st6" d="M1169.5,831.2l-58.7,176.3l36.4-18.6l0,0.1L1169.5,831.2z"
				/>
			<path id="path4582" inkscape:connector-curvature="0" class="st7" d="M1169.5,831.2l17.9,155.7l0.1-0.3l36.7,23.2L1169.5,831.2z"
				/>
		</g>
		<g id="g4612" transform="matrix(0.3866729,0,-0.00656404,0.38797644,0.00893823,195.84156)">
			
				<path id="path4600" inkscape:flatsided="true" inkscape:randomized="0" inkscape:rounded="0" inkscape:transform-center-x="-7.7843451e-006" inkscape:transform-center-y="-14.288459" sodipodi:arg1="0.52359878" sodipodi:arg2="1.5707963" sodipodi:cx="-271.54584" sodipodi:cy="255.57323" sodipodi:r1="57.153828" sodipodi:r2="28.576914" sodipodi:sides="3" sodipodi:type="star" class="st2" d="
				M2362.5,1436.6h-222.8l111-348.3L2362.5,1436.6z"/>
			
				<path id="path4602" inkscape:connector-curvature="0" inkscape:transform-center-x="-7.7843451e-006" inkscape:transform-center-y="-14.288459" sodipodi:nodetypes="cccc" class="st3" d="
				M2206.4,1436.6h-66.8l111-348.3L2206.4,1436.6z"/>
			
				<path id="path4604" inkscape:connector-curvature="0" inkscape:transform-center-x="5.5943528e-006" inkscape:transform-center-y="-14.288464" sodipodi:nodetypes="cccc" class="st4" d="
				M2295.6,1436.6h66.8l-111.8-348.3L2295.6,1436.6z"/>
			<path id="path4606" inkscape:connector-curvature="0" class="st5" d="M2250.6,1088.3l-56.2,176.2l36.1-18.6l21.1,36.8l19.3-39.1
				l37.1,23.2L2250.6,1088.3z"/>
			<path id="path4608" inkscape:connector-curvature="0" class="st6" d="M2250.6,1088.3l-56.2,176.2l36.1-18.6v0.1L2250.6,1088.3z"
				/>
			<path id="path4610" inkscape:connector-curvature="0" class="st7" d="M2250.6,1088.3l20.2,155.7l0.1-0.3l37.1,23.2L2250.6,1088.3
				z"/>
		</g>
		<g id="g4626" transform="matrix(0.64046721,0,0.056292,0.64262634,142.68497,122.59084)">
			
				<path id="path4614" inkscape:flatsided="true" inkscape:randomized="0" inkscape:rounded="0" inkscape:transform-center-x="-7.7843451e-006" inkscape:transform-center-y="-14.288459" sodipodi:arg1="0.52359878" sodipodi:arg2="1.5707963" sodipodi:cx="-271.54584" sodipodi:cy="255.57323" sodipodi:r1="57.153828" sodipodi:r2="28.576914" sodipodi:sides="3" sodipodi:type="star" class="st2" d="
				M1670,1004h-222.8l113.6-348.3L1670,1004z"/>
			
				<path id="path4616" inkscape:connector-curvature="0" inkscape:transform-center-x="-7.7843451e-006" inkscape:transform-center-y="-14.288459" sodipodi:nodetypes="cccc" class="st3" d="
				M1514.1,1004h-66.8l113.6-348.3L1514.1,1004z"/>
			
				<path id="path4618" inkscape:connector-curvature="0" inkscape:transform-center-x="5.5943528e-006" inkscape:transform-center-y="-14.288464" sodipodi:nodetypes="cccc" class="st4" d="
				M1603.3,1004h66.8l-109.3-348.3L1603.3,1004z"/>
			<path id="path4620" inkscape:connector-curvature="0" class="st5" d="M1560.9,655.7l-57.5,176.2l36.2-18.6l20.8,36.8l19.6-39.1
				l36.9,23.2L1560.9,655.7z"/>
			<path id="path4622" inkscape:connector-curvature="0" class="st6" d="M1560.9,655.7l-57.5,176.2l36.2-18.6l0,0.1L1560.9,655.7z"
				/>
			<path id="path4624" inkscape:connector-curvature="0" class="st7" d="M1560.9,655.7l19,155.7l0.1-0.3l36.9,23.2L1560.9,655.7z"/>
		</g>
		<g id="g4640" transform="matrix(0.67435174,0,0.05927018,0.6766251,127.8093,123.24274)">
			
				<path id="path4628" inkscape:flatsided="true" inkscape:randomized="0" inkscape:rounded="0" inkscape:transform-center-x="-7.7843451e-006" inkscape:transform-center-y="-14.288459" sodipodi:arg1="0.52359878" sodipodi:arg2="1.5707963" sodipodi:cx="-271.54584" sodipodi:cy="255.57323" sodipodi:r1="57.153828" sodipodi:r2="28.576914" sodipodi:sides="3" sodipodi:type="star" class="st2" d="
				M1475.5,1018.2h-222.8l113.6-348.3L1475.5,1018.2z"/>
			
				<path id="path4630" inkscape:connector-curvature="0" inkscape:transform-center-x="-7.7843451e-006" inkscape:transform-center-y="-14.288459" sodipodi:nodetypes="cccc" class="st3" d="
				M1319.6,1018.2h-66.8l113.6-348.3L1319.6,1018.2z"/>
			
				<path id="path4632" inkscape:connector-curvature="0" inkscape:transform-center-x="5.5943528e-006" inkscape:transform-center-y="-14.288464" sodipodi:nodetypes="cccc" class="st4" d="
				M1408.8,1018.2h66.8l-109.3-348.3L1408.8,1018.2z"/>
			<path id="path4634" inkscape:connector-curvature="0" class="st5" d="M1366.3,669.8L1308.8,846l36.2-18.6l20.8,36.8l19.6-39.1
				l36.9,23.2L1366.3,669.8z"/>
			<path id="path4636" inkscape:connector-curvature="0" class="st6" d="M1366.3,669.8L1308.8,846l36.2-18.6l0,0.1L1366.3,669.8z"/>
			<path id="path4638" inkscape:connector-curvature="0" class="st7" d="M1366.3,669.8l19,155.7l0.1-0.3l36.9,23.2L1366.3,669.8z"/>
		</g>
		<path id="ellipse4504" class="st6" d="M144.7,607.9c-50.9,0.4-99.7,7.7-142.9,21.2v217.2h1279.5V669c-12.5-0.9-25.2-1.1-37.7-0.7
			c-51,1.6-100.5,12.5-141.4,31.3c-45.8-23.8-106.2-36.1-168.5-34.3c-64.2,1.9-125.5,18.6-170.6,46.6C711.2,683.5,644,667,574,665.3
			c-50.8-1.1-100.8,5.6-144.9,19.5c-60.2-39.6-140.7-65.9-225.8-74.1C183.8,608.8,164.2,607.8,144.7,607.9z"/>
		<path id="path4642" inkscape:connector-curvature="0" sodipodi:nodetypes="cacac" class="st8" d="M31.5,700.3
			c0,0,108.8-22.4,163-15.5c50.2,6.3,144.2,51.6,144.2,51.6s-95.3-35.4-145.1-41.6C139.9,688.3,31.5,700.3,31.5,700.3z"/>
		<path id="path4644" inkscape:connector-curvature="0" sodipodi:nodetypes="cacac" class="st8" d="M446.8,753.2
			c0,0,84.4-14.9,127.3-13.6c39.9,1.1,116,19.6,116,19.6s-76.8-13.6-116.2-14.8C531.3,743.2,446.8,753.2,446.8,753.2L446.8,753.2z"
			/>
		<path id="path4646" inkscape:connector-curvature="0" sodipodi:nodetypes="cacac" class="st8" d="M810.6,759.5
			c0,0,83.4-19.8,126.3-21.1c39.9-1.1,116.9,12.9,116.9,12.9s-77.4-9.2-116.8-8C894.5,744.6,810.6,759.5,810.6,759.5z"/>
		<path id="path4648" inkscape:connector-curvature="0" sodipodi:nodetypes="ccccc" class="st9" d="M484.7,227.8l125.1-11.3
			L840,251.2l-196.9-2L484.7,227.8z"/>
		<path id="path4650" inkscape:connector-curvature="0" sodipodi:nodetypes="ccccc" class="st9" d="M1003.4,219.5l58.6-6.7l108,20.6
			l-92.4-1.1L1003.4,219.5z"/>
		<path id="path4652" inkscape:connector-curvature="0" sodipodi:nodetypes="ccccc" class="st9" d="M72.5,266.1l68.2-13.2L266.2,293
			l-107.4-2.3L72.5,266.1z"/>
		<path id="path4654" inkscape:connector-curvature="0" sodipodi:nodetypes="ccccc" class="st9" d="M443.5,479.8l71.4-14.2
			l131.4,43.4l-112.5-2.4L443.5,479.8z"/>
		<path id="path4656" inkscape:connector-curvature="0" sodipodi:nodetypes="ccccc" class="st9" d="M1028.7,436.7l68-11l124.9,33.7
			l-106.9-2L1028.7,436.7z"/>
		<ellipse id="path4678" class="st6" cx="40.3" cy="176.2" rx="2.8" ry="3"/>
		<ellipse id="path4680" class="st6" cx="433.6" cy="342.2" rx="2.8" ry="3"/>
		<ellipse id="path4682" class="st6" cx="890.7" cy="202.4" rx="2.8" ry="3"/>
		<ellipse id="path4684" class="st6" cx="1114.8" cy="345.2" rx="2.8" ry="3"/>
		<ellipse id="path4686" class="st6" cx="1207.3" cy="179.6" rx="2.5" ry="2.7"/>
		<ellipse id="path4688" class="st6" cx="941" cy="537.6" rx="2.5" ry="2.7"/>
		<ellipse id="path4690" class="st6" cx="400.9" cy="577.2" rx="2.8" ry="3"/>
		<ellipse id="path4692" class="st6" cx="54.2" cy="402.4" rx="2.5" ry="2.7"/>
		<ellipse id="path4694" class="st6" cx="475.5" cy="181.2" rx="2.5" ry="2.7"/>
		<ellipse id="path4696" class="st6" cx="716.7" cy="381.6" rx="2.5" ry="2.7"/>
		<ellipse id="path4698" class="st6" cx="1219.5" cy="503" rx="3.2" ry="3.4"/>
		<ellipse id="path4700" class="st6" cx="920" cy="381.3" rx="2.1" ry="2.3"/>
		<ellipse id="path4702" class="st6" cx="951.7" cy="635.9" rx="2.5" ry="2.7"/>
		<ellipse id="path4704" class="st6" cx="376.5" cy="426.8" rx="5.1" ry="5.4"/>
	</g>
</g>
</svg>
