<?xml version="1.0" encoding="utf-8"?>
<!-- Generator: Adobe Illustrator 23.0.6, SVG Export Plug-In . SVG Version: 6.00 Build 0)  -->
<svg version="1.1"
	 id="svg8" xmlns:cc="http://creativecommons.org/ns#" xmlns:dc="http://purl.org/dc/elements/1.1/" xmlns:inkscape="http://www.inkscape.org/namespaces/inkscape" xmlns:rdf="http://www.w3.org/1999/02/22-rdf-syntax-ns#" xmlns:sodipodi="http://sodipodi.sourceforge.net/DTD/sodipodi-0.dtd" xmlns:svg="http://www.w3.org/2000/svg"
	 xmlns="http://www.w3.org/2000/svg" xmlns:xlink="http://www.w3.org/1999/xlink" x="0px" y="0px" viewBox="0 0 960 540"
	 style="enable-background:new 0 0 960 540;" xml:space="preserve">
<style type="text/css">
	.st0{opacity:0.5;}
	.st1{fill:url(#rect4488_1_);}
	.st2{fill:#7496C8;}
	.st3{fill:#AABEDE;}
	.st4{fill:#5D83C1;}
	.st5{fill:#E5F4F8;}
	.st6{fill:#FFFFFF;}
	.st7{fill:#CEEAF2;}
	.st8{fill:#E6E6E6;}
	.st9{fill:#E6E6E6;fill-opacity:0.1961;}
	.st10{filter:url(#filter4674);}
</style>
<filter  height="1.24" id="filter4674" inkscape:collect="always" style="color-interpolation-filters:sRGB" width="1.24" x="-0.12" y="-0.12">
	<feGaussianBlur  id="feGaussianBlur4676" inkscape:collect="always" stdDeviation="1.1225318"></feGaussianBlur>
</filter>
<sodipodi:namedview  bordercolor="#666666" borderopacity="1.0" id="base" inkscape:current-layer="layer2" inkscape:cx="-670.67272" inkscape:cy="150.62542" inkscape:document-units="px" inkscape:pageopacity="0.0" inkscape:pageshadow="2" inkscape:snap-global="false" inkscape:window-height="1017" inkscape:window-maximized="1" inkscape:window-width="1920" inkscape:window-x="1912" inkscape:window-y="-8" inkscape:zoom="0.7" pagecolor="#ffffff" showborder="false" showgrid="false">
	</sodipodi:namedview>
<g id="layer2" inkscape:groupmode="layer" inkscape:label="Layer 2" class="st0">
	<g id="g4788" inkscape:export-xdpi="95.999939" inkscape:export-ydpi="95.999939">
		
			<linearGradient id="rect4488_1_" gradientUnits="userSpaceOnUse" x1="279.1798" y1="534.371" x2="279.5578" y2="723.7371" gradientTransform="matrix(2.8346 0 0 -2.8346 -311.9148 2054.7576)">
			<stop  offset="0" style="stop-color:#FFFFFF"/>
			<stop  offset="1" style="stop-color:#3B9BDB"/>
		</linearGradient>
		<rect id="rect4488" y="0" class="st1" width="960" height="540"/>
		<g id="g4542" transform="translate(-5.6696429,2.078869)">
			
				<path id="path4514" inkscape:flatsided="true" inkscape:randomized="0" inkscape:rounded="0" inkscape:transform-center-x="-7.7843451e-006" inkscape:transform-center-y="-14.288459" sodipodi:arg1="0.52359878" sodipodi:arg2="1.5707963" sodipodi:cx="-271.54584" sodipodi:cy="255.57323" sodipodi:r1="57.153828" sodipodi:r2="28.576914" sodipodi:sides="3" sodipodi:type="star" class="st2" d="
				M231.2,405.2H64l83.6-243L231.2,405.2z"/>
			
				<path id="path4516" inkscape:connector-curvature="0" inkscape:transform-center-x="-7.7843451e-006" inkscape:transform-center-y="-14.288459" sodipodi:nodetypes="cccc" class="st3" d="
				M114.1,405.2H64l83.6-243L114.1,405.2z"/>
			
				<path id="path4519" inkscape:connector-curvature="0" inkscape:transform-center-x="5.5943528e-006" inkscape:transform-center-y="-14.288464" sodipodi:nodetypes="cccc" class="st4" d="
				M181,405.2h50.1l-83.6-243L181,405.2z"/>
			<path id="path4521" inkscape:connector-curvature="0" class="st5" d="M147.6,162.2l-42.3,122.9l27.1-13l15.8,25.7l14.5-27.3
				l27.8,16.2L147.6,162.2z"/>
			<path id="path4526" inkscape:connector-curvature="0" class="st6" d="M147.6,162.2l-42.3,122.9l27.1-13l0,0.1L147.6,162.2z"/>
			<path id="path4531" inkscape:connector-curvature="0" class="st7" d="M147.6,162.2l15,108.6l0.1-0.2l27.8,16.2L147.6,162.2z"/>
		</g>
		<g id="g4556" transform="matrix(0.42023383,0,0,0.42023383,-204.01909,176.85426)">
			
				<path id="path4544" inkscape:flatsided="true" inkscape:randomized="0" inkscape:rounded="0" inkscape:transform-center-x="-7.7843451e-006" inkscape:transform-center-y="-14.288459" sodipodi:arg1="0.52359878" sodipodi:arg2="1.5707963" sodipodi:cx="-271.54584" sodipodi:cy="255.57323" sodipodi:r1="57.153828" sodipodi:r2="28.576914" sodipodi:sides="3" sodipodi:type="star" class="st2" d="
				M687.1,547.1H520l83.6-243L687.1,547.1z"/>
			
				<path id="path4546" inkscape:connector-curvature="0" inkscape:transform-center-x="-7.7843451e-006" inkscape:transform-center-y="-14.288459" sodipodi:nodetypes="cccc" class="st3" d="
				M570.1,547.1H520l83.6-243L570.1,547.1z"/>
			
				<path id="path4548" inkscape:connector-curvature="0" inkscape:transform-center-x="5.5943528e-006" inkscape:transform-center-y="-14.288464" sodipodi:nodetypes="cccc" class="st4" d="
				M637,547.1h50.1l-83.6-243L637,547.1z"/>
			<path id="path4550" inkscape:connector-curvature="0" class="st5" d="M603.5,304.1l-42.3,122.9l27.1-13l15.8,25.7l14.5-27.3
				l27.8,16.2L603.5,304.1z"/>
			<path id="path4552" inkscape:connector-curvature="0" class="st6" d="M603.5,304.1l-42.3,122.9l27.1-13l0,0.1L603.5,304.1z"/>
			<path id="path4554" inkscape:connector-curvature="0" class="st7" d="M603.5,304.1l15,108.6l0.1-0.2l27.8,16.2L603.5,304.1z"/>
		</g>
		<g id="g4570" transform="matrix(0.51943336,0,0,0.51943336,-109.4157,149.75221)">
			
				<path id="path4558" inkscape:flatsided="true" inkscape:randomized="0" inkscape:rounded="0" inkscape:transform-center-x="-7.7843451e-006" inkscape:transform-center-y="-14.288459" sodipodi:arg1="0.52359878" sodipodi:arg2="1.5707963" sodipodi:cx="-271.54584" sodipodi:cy="255.57323" sodipodi:r1="57.153828" sodipodi:r2="28.576914" sodipodi:sides="3" sodipodi:type="star" class="st2" d="
				M751.2,510.3H584l83.6-243L751.2,510.3z"/>
			
				<path id="path4560" inkscape:connector-curvature="0" inkscape:transform-center-x="-7.7843451e-006" inkscape:transform-center-y="-14.288459" sodipodi:nodetypes="cccc" class="st3" d="
				M634.1,510.3H584l83.6-243L634.1,510.3z"/>
			
				<path id="path4562" inkscape:connector-curvature="0" inkscape:transform-center-x="5.5943528e-006" inkscape:transform-center-y="-14.288464" sodipodi:nodetypes="cccc" class="st4" d="
				M701.1,510.3h50.1l-83.6-243L701.1,510.3z"/>
			<path id="path4564" inkscape:connector-curvature="0" class="st5" d="M667.6,267.3l-42.3,122.9l27.1-13l15.8,25.7l14.5-27.3
				l27.8,16.2L667.6,267.3z"/>
			<path id="path4566" inkscape:connector-curvature="0" class="st6" d="M667.6,267.3l-42.3,122.9l27.1-13l0,0.1L667.6,267.3z"/>
			<path id="path4568" inkscape:connector-curvature="0" class="st7" d="M667.6,267.3l15,108.6l0.1-0.2l27.8,16.2L667.6,267.3z"/>
		</g>
		<g id="g4598" transform="matrix(0.8805059,0,-0.0149472,0.88347425,118.73092,64.064139)">
			
				<path id="path4586" inkscape:flatsided="true" inkscape:randomized="0" inkscape:rounded="0" inkscape:transform-center-x="-7.7843451e-006" inkscape:transform-center-y="-14.288459" sodipodi:arg1="0.52359878" sodipodi:arg2="1.5707963" sodipodi:cx="-271.54584" sodipodi:cy="255.57323" sodipodi:r1="57.153828" sodipodi:r2="28.576914" sodipodi:sides="3" sodipodi:type="star" class="st2" d="
				M613.9,474.6H446.8l83.6-243L613.9,474.6z"/>
			
				<path id="path4588" inkscape:connector-curvature="0" inkscape:transform-center-x="-7.7843451e-006" inkscape:transform-center-y="-14.288459" sodipodi:nodetypes="cccc" class="st3" d="
				M496.9,474.6h-50.1l83.6-243L496.9,474.6z"/>
			
				<path id="path4590" inkscape:connector-curvature="0" inkscape:transform-center-x="5.5943528e-006" inkscape:transform-center-y="-14.288464" sodipodi:nodetypes="cccc" class="st4" d="
				M563.8,474.6h50.1l-83.6-243L563.8,474.6z"/>
			<path id="path4592" inkscape:connector-curvature="0" class="st5" d="M530.3,231.6l-42.3,122.9l27.1-13l15.8,25.7l14.5-27.3
				l27.8,16.2L530.3,231.6z"/>
			<path id="path4594" inkscape:connector-curvature="0" class="st6" d="M530.3,231.6l-42.3,122.9l27.1-13l0,0.1L530.3,231.6z"/>
			<path id="path4596" inkscape:connector-curvature="0" class="st7" d="M530.3,231.6l15,108.6l0.1-0.2l27.8,16.2L530.3,231.6z"/>
		</g>
		<g id="g4584" transform="matrix(0.51943336,0,0.0969951,0.51943336,-41.786877,161.28605)">
			
				<path id="path4572" inkscape:flatsided="true" inkscape:randomized="0" inkscape:rounded="0" inkscape:transform-center-x="-7.7843451e-006" inkscape:transform-center-y="-14.288459" sodipodi:arg1="0.52359878" sodipodi:arg2="1.5707963" sodipodi:cx="-271.54584" sodipodi:cy="255.57323" sodipodi:r1="57.153828" sodipodi:r2="28.576914" sodipodi:sides="3" sodipodi:type="star" class="st2" d="
				M1046.9,551H879.7l83.6-243L1046.9,551z"/>
			
				<path id="path4574" inkscape:connector-curvature="0" inkscape:transform-center-x="-7.7843451e-006" inkscape:transform-center-y="-14.288459" sodipodi:nodetypes="cccc" class="st3" d="
				M929.9,551h-50.1l83.6-243L929.9,551z"/>
			
				<path id="path4576" inkscape:connector-curvature="0" inkscape:transform-center-x="5.5943528e-006" inkscape:transform-center-y="-14.288464" sodipodi:nodetypes="cccc" class="st4" d="
				M996.8,551h50.1l-83.6-243L996.8,551z"/>
			<path id="path4578" inkscape:connector-curvature="0" class="st5" d="M963.3,308L921,431l27.1-13l15.8,25.7l14.5-27.3l27.8,16.2
				L963.3,308z"/>
			<path id="path4580" inkscape:connector-curvature="0" class="st6" d="M963.3,308L921,431l27.1-13l0,0.1L963.3,308z"/>
			<path id="path4582" inkscape:connector-curvature="0" class="st7" d="M963.3,308l15,108.6l0.1-0.2l27.8,16.2L963.3,308z"/>
		</g>
		<g id="g4612" transform="matrix(0.3866729,0,-0.00656404,0.38797644,0.00893823,195.84156)">
			
				<path id="path4600" inkscape:flatsided="true" inkscape:randomized="0" inkscape:rounded="0" inkscape:transform-center-x="-7.7843451e-006" inkscape:transform-center-y="-14.288459" sodipodi:arg1="0.52359878" sodipodi:arg2="1.5707963" sodipodi:cx="-271.54584" sodipodi:cy="255.57323" sodipodi:r1="57.153828" sodipodi:r2="28.576914" sodipodi:sides="3" sodipodi:type="star" class="st2" d="
				M1773.8,611.3h-167.2l83.6-243L1773.8,611.3z"/>
			
				<path id="path4602" inkscape:connector-curvature="0" inkscape:transform-center-x="-7.7843451e-006" inkscape:transform-center-y="-14.288459" sodipodi:nodetypes="cccc" class="st3" d="
				M1656.7,611.3h-50.1l83.6-243L1656.7,611.3z"/>
			
				<path id="path4604" inkscape:connector-curvature="0" inkscape:transform-center-x="5.5943528e-006" inkscape:transform-center-y="-14.288464" sodipodi:nodetypes="cccc" class="st4" d="
				M1723.6,611.3h50.1l-83.6-243L1723.6,611.3z"/>
			<path id="path4606" inkscape:connector-curvature="0" class="st5" d="M1690.2,368.3l-42.3,122.9l27.1-13l15.8,25.7l14.5-27.3
				l27.8,16.2L1690.2,368.3z"/>
			<path id="path4608" inkscape:connector-curvature="0" class="st6" d="M1690.2,368.3l-42.3,122.9l27.1-13l0,0.1L1690.2,368.3z"/>
			<path id="path4610" inkscape:connector-curvature="0" class="st7" d="M1690.2,368.3l15,108.6l0.1-0.2l27.8,16.2L1690.2,368.3z"/>
		</g>
		<g id="g4626" transform="matrix(0.64046721,0,0.056292,0.64262634,142.68497,122.59084)">
			
				<path id="path4614" inkscape:flatsided="true" inkscape:randomized="0" inkscape:rounded="0" inkscape:transform-center-x="-7.7843451e-006" inkscape:transform-center-y="-14.288459" sodipodi:arg1="0.52359878" sodipodi:arg2="1.5707963" sodipodi:cx="-271.54584" sodipodi:cy="255.57323" sodipodi:r1="57.153828" sodipodi:r2="28.576914" sodipodi:sides="3" sodipodi:type="star" class="st2" d="
				M1225.3,498.9h-167.2l83.6-243L1225.3,498.9z"/>
			
				<path id="path4616" inkscape:connector-curvature="0" inkscape:transform-center-x="-7.7843451e-006" inkscape:transform-center-y="-14.288459" sodipodi:nodetypes="cccc" class="st3" d="
				M1108.3,498.9h-50.1l83.6-243L1108.3,498.9z"/>
			
				<path id="path4618" inkscape:connector-curvature="0" inkscape:transform-center-x="5.5943528e-006" inkscape:transform-center-y="-14.288464" sodipodi:nodetypes="cccc" class="st4" d="
				M1175.2,498.9h50.1l-83.6-243L1175.2,498.9z"/>
			<path id="path4620" inkscape:connector-curvature="0" class="st5" d="M1141.8,255.9l-42.3,122.9l27.1-13l15.8,25.7l14.5-27.3
				l27.8,16.2L1141.8,255.9z"/>
			<path id="path4622" inkscape:connector-curvature="0" class="st6" d="M1141.8,255.9l-42.3,122.9l27.1-13l0,0.1L1141.8,255.9z"/>
			<path id="path4624" inkscape:connector-curvature="0" class="st7" d="M1141.8,255.9l15,108.6l0.1-0.2l27.8,16.2L1141.8,255.9z"/>
		</g>
		<g id="g4640" transform="matrix(0.67435174,0,0.05927018,0.6766251,127.8093,123.24274)">
			
				<path id="path4628" inkscape:flatsided="true" inkscape:randomized="0" inkscape:rounded="0" inkscape:transform-center-x="-7.7843451e-006" inkscape:transform-center-y="-14.288459" sodipodi:arg1="0.52359878" sodipodi:arg2="1.5707963" sodipodi:cx="-271.54584" sodipodi:cy="255.57323" sodipodi:r1="57.153828" sodipodi:r2="28.576914" sodipodi:sides="3" sodipodi:type="star" class="st2" d="
				M1086.6,518.6H919.4l83.6-243L1086.6,518.6z"/>
			
				<path id="path4630" inkscape:connector-curvature="0" inkscape:transform-center-x="-7.7843451e-006" inkscape:transform-center-y="-14.288459" sodipodi:nodetypes="cccc" class="st3" d="
				M969.6,518.6h-50.1l83.6-243L969.6,518.6z"/>
			
				<path id="path4632" inkscape:connector-curvature="0" inkscape:transform-center-x="5.5943528e-006" inkscape:transform-center-y="-14.288464" sodipodi:nodetypes="cccc" class="st4" d="
				M1036.5,518.6h50.1l-83.6-243L1036.5,518.6z"/>
			<path id="path4634" inkscape:connector-curvature="0" class="st5" d="M1003,275.6l-42.3,122.9l27.1-13l15.8,25.7l14.5-27.3
				l27.8,16.2L1003,275.6z"/>
			<path id="path4636" inkscape:connector-curvature="0" class="st6" d="M1003,275.6l-42.3,122.9l27.1-13l0,0.1L1003,275.6z"/>
			<path id="path4638" inkscape:connector-curvature="0" class="st7" d="M1003,275.6l15,108.6l0.1-0.2l27.8,16.2L1003,275.6z"/>
		</g>
		<path id="ellipse4504" class="st6" d="M107.2,373.7C69,374,32.4,379.1,0,388.5V540h960V416.3c-9.4-0.6-18.9-0.8-28.3-0.5
			c-38.3,1.1-75.4,8.7-106.1,21.8c-34.4-16.6-79.7-25.2-126.4-23.9c-48.2,1.3-94.2,13-128,32.5c-39-19.8-89.4-31.3-141.9-32.5
			c-38.1-0.8-75.6,3.9-108.7,13.6c-45.2-27.6-105.6-46-169.4-51.7C136.5,374.3,121.8,373.6,107.2,373.7z"/>
		<path id="path4642" inkscape:connector-curvature="0" sodipodi:nodetypes="cacac" class="st8" d="M27.2,396.1
			c0,0,81.6-15.6,122.3-10.8c37.7,4.4,108.2,36,108.2,36s-71.5-24.7-108.9-29C108.5,387.7,27.2,396.1,27.2,396.1z"/>
		<path id="path4644" inkscape:connector-curvature="0" sodipodi:nodetypes="cacac" class="st8" d="M338.8,433
			c0,0,63.3-10.4,95.5-9.5c29.9,0.8,87,13.7,87,13.7s-57.6-9.5-87.2-10.3C402.2,426,338.8,433,338.8,433L338.8,433z"/>
		<path id="path4646" inkscape:connector-curvature="0" sodipodi:nodetypes="cacac" class="st8" d="M611.7,437.4
			c0,0,62.6-13.8,94.8-14.7c29.9-0.8,87.7,9,87.7,9s-58.1-6.4-87.6-5.6C674.7,427,611.7,437.4,611.7,437.4z"/>
		<path id="path4648" inkscape:connector-curvature="0" sodipodi:nodetypes="ccccc" class="st9" d="M367.2,66.5l93.9-7.9l172.7,24.2
			l-147.7-1.4L367.2,66.5z"/>
		<path id="path4650" inkscape:connector-curvature="0" sodipodi:nodetypes="ccccc" class="st9" d="M756.4,60.7l44-4.7l81,14.4
			l-69.3-0.8L756.4,60.7z"/>
		<path id="path4652" inkscape:connector-curvature="0" sodipodi:nodetypes="ccccc" class="st9" d="M57.9,93.2l51.2-9.2l94.2,28
			l-80.6-1.6L57.9,93.2z"/>
		<path id="path4654" inkscape:connector-curvature="0" sodipodi:nodetypes="ccccc" class="st9" d="M336.3,242.3l53.6-9.9l98.6,30.3
			l-84.4-1.7L336.3,242.3z"/>
		<path id="path4656" inkscape:connector-curvature="0" sodipodi:nodetypes="ccccc" class="st9" d="M775.4,212.2l51-7.7l93.7,23.5
			l-80.2-1.4L775.4,212.2z"/>
		<circle id="path4658" class="st6" cx="237.9" cy="63.6" r="31.8"/>
		<g id="circle4660" class="st10">
			<circle class="st6" cx="237.9" cy="63.6" r="31.8"/>
		</g>
		<circle id="path4678" class="st6" cx="33.8" cy="30.5" r="2.1"/>
		<circle id="path4680" class="st6" cx="328.9" cy="146.3" r="2.1"/>
		<circle id="path4682" class="st6" cx="671.8" cy="48.8" r="2.1"/>
		<circle id="path4684" class="st6" cx="840" cy="148.4" r="2.1"/>
		<circle id="path4686" class="st6" cx="909.4" cy="32.9" r="1.9"/>
		<circle id="path4688" class="st6" cx="709.6" cy="282.6" r="1.9"/>
		<circle id="path4690" class="st6" cx="304.3" cy="310.2" r="2.1"/>
		<circle id="path4692" class="st6" cx="44.2" cy="188.3" r="1.9"/>
		<circle id="path4694" class="st6" cx="360.3" cy="34" r="1.9"/>
		<circle id="path4696" class="st6" cx="541.3" cy="173.8" r="1.9"/>
		<circle id="path4698" class="st6" cx="918.5" cy="258.5" r="2.4"/>
		<circle id="path4700" class="st6" cx="693.8" cy="173.6" r="1.6"/>
		<circle id="path4702" class="st6" cx="717.6" cy="351.2" r="1.9"/>
		<circle id="path4704" class="st6" cx="286" cy="205.3" r="3.8"/>
	</g>
</g>
</svg>
